<svg xmlns="http://www.w3.org/2000/svg" viewBox="0 0 192 192"><path d="m172 96.23 4 .012v-.011h-4Zm-76 76-.011 4h.022l-.011-4Zm-76-76-4-.011v.023l4-.011Zm76-76v-4h-.011l.011 4Zm76 0h4v-4h-4v4ZM92.02 145.262a4 4 0 0 0 8 0h-8Zm8-98.06a4 4 0 1 0-8 0h8ZM46.99 92.23a4 4 0 1 0 0 7.999v-8Zm98.06 7.999a4 4 0 1 0 0-8v8ZM168 96.219a72.223 72.223 0 0 1-21.152 50.859l5.656 5.657A80.22 80.22 0 0 0 176 96.242l-8-.023Zm-21.152 50.859a72.22 72.22 0 0 1-50.86 21.152l.023 8a80.22 80.22 0 0 0 56.493-23.495l-5.656-5.657ZM96.011 168.23a72.22 72.22 0 0 1-50.859-21.152l-5.656 5.657a80.221 80.221 0 0 0 56.492 23.495l.023-8Zm-50.859-21.152A72.22 72.22 0 0 1 24 96.218l-8 .024a80.222 80.222 0 0 0 23.496 56.493l5.656-5.657ZM24 96.242a72.22 72.22 0 0 1 21.152-50.86l-5.656-5.656A80.22 80.22 0 0 0 16 96.219l8 .023Zm21.152-50.86a72.22 72.22 0 0 1 50.86-21.151l-.023-8a80.22 80.22 0 0 0-56.493 23.495l5.656 5.657ZM96 24.232h76v-8H96v8Zm72-4v76h8v-76h-8Zm-67.98 125.03v-98.06h-8v98.06h8ZM46.99 100.23h98.06v-8H46.99v8Z" fill="currentColor"/></svg>