<svg xmlns="http://www.w3.org/2000/svg" viewBox="0 0 192 192"><path d="m118 80-31.85 32L74 100m90.56-21.31a25.585 25.585 0 0 1 7.439 18.412 25.599 25.599 0 0 1-7.969 18.188 25.577 25.577 0 0 1-2.765 19.664 25.595 25.595 0 0 1-15.995 11.766 25.394 25.394 0 0 1-5.66 10.4 25.655 25.655 0 0 1-26.3 7.44 25.579 25.579 0 0 1-18.412 7.439 25.602 25.602 0 0 1-18.188-7.969 25.596 25.596 0 0 1-19.664-2.765A25.588 25.588 0 0 1 45.28 145.27a25.393 25.393 0 0 1-10.4-5.66 25.653 25.653 0 0 1-7.44-26.3 25.593 25.593 0 0 1-5.267-28.315A25.59 25.59 0 0 1 28 76.71a25.591 25.591 0 0 1 18.73-31.43 25.39 25.39 0 0 1 5.66-10.4 25.65 25.65 0 0 1 26.3-7.44 25.592 25.592 0 0 1 36.6.53 25.59 25.59 0 0 1 31.43 18.76 25.391 25.391 0 0 1 10.4 5.66 25.65 25.65 0 0 1 7.44 26.3ZM148 96c0 28.719-23.281 52-52 52s-52-23.281-52-52S67.28 44 96 44s52 23.281 52 52Z" fill="none" stroke="currentColor" stroke-width="8" stroke-linecap="round" stroke-linejoin="round"/></svg>