<svg xmlns="http://www.w3.org/2000/svg" viewBox="0 0 192 192"><path d="M83.688 152.25a4 4 0 0 0 0 8v-8Zm24 8a4 4 0 0 0 0-8v8Zm-24-.906 3.043 2.596a4.001 4.001 0 0 0 .957-2.596h-4Zm-72-1.094h-4c0 .951.338 1.871.955 2.595l3.044-2.595Zm4-23a4 4 0 0 0-8 0h8Zm4 44.031h-4c0 .951.338 1.871.955 2.595l3.044-2.595Zm72 1 3.035 2.605a4 4 0 0 0 .965-2.605h-4ZM144 96.25a4 4 0 0 0-8 0h8ZM92.937 168a4 4 0 0 0 0 8v-8ZM48 122.469a4 4 0 0 0 8 0h-8ZM140 20h4v-4h-4v4Zm-4 28.25a4 4 0 0 0 8 0h-8Zm31.034 1.716a4 4 0 0 0-5.631-5.682l5.631 5.682Zm-64.44 58.222-2.829 2.828a4 4 0 0 0 5.644.013l-2.815-2.841ZM81.86 81.797a4 4 0 0 0-5.657 5.656l5.657-5.656Zm1.828 78.453h24v-8h-24v8Zm4-24.5c0-3.408-1.998-6.075-4.293-7.959-2.323-1.906-5.442-3.444-8.943-4.66-7.039-2.443-16.503-3.881-26.764-3.881v8c9.613 0 18.149 1.359 24.14 3.439 3.016 1.047 5.17 2.201 6.492 3.286 1.35 1.108 1.368 1.73 1.368 1.775h8Zm-40-16.5c-10.262 0-19.726 1.438-26.765 3.881-3.501 1.216-6.62 2.754-8.943 4.66-2.295 1.884-4.293 4.551-4.293 7.959h8c0-.045.018-.667 1.368-1.775 1.322-1.085 3.476-2.239 6.491-3.286 5.992-2.08 14.529-3.439 24.142-3.439v-8Zm-36 16.5v-23h-8v23h8Zm4.955 41.436c2.337 2.742 5.462 4.28 8.78 5.4 6.722 2.271 15.817 3.164 26.265 3.164v-8c-10.052 0-18.153-.877-23.765-2.773-2.827-.956-4.613-2.09-5.676-3.337l-6.089 5.19Zm36-.395v-83.03h-8v83.03h8Zm-96.955-24.24c2.337 2.742 5.462 4.28 8.78 5.4 6.722 2.271 15.817 3.164 26.265 3.164v-8c-10.052 0-18.153-.877-23.765-2.773-2.827-.956-4.613-2.09-5.676-3.337l-6.089 5.19Zm36-.396v-17.586h-8v17.586h8ZM136 20v28.25h8V20h-8Zm25.403 24.284-61.625 61.063 5.63 5.682 61.626-61.063-5.631-5.682Zm-55.981 61.076-23.56-23.563-5.658 5.656 23.56 23.563 5.658-5.656ZM140 20H96v8h44v-8Z" fill="currentColor"/></svg>